<svg width="96" height="96" xmlns="http://www.w3.org/2000/svg" xmlns:xlink="http://www.w3.org/1999/xlink" xml:space="preserve" overflow="hidden"><g transform="translate(-331 -130)"><path d="M423 163 425 163 425 165 423 165Z" fill="#003B6D"/><path d="M419 163 421 163 421 165 419 165Z" fill="#003B6D"/><path d="M407 163 409 163 409 165 407 165Z" fill="#003B6D"/><path d="M411 163 413 163 413 165 411 165Z" fill="#003B6D"/><path d="M403 163 405 163 405 165 403 165Z" fill="#003B6D"/><path d="M415 163 417 163 417 165 415 165Z" fill="#003B6D"/><path d="M399 163 401 163 401 165 399 165Z" fill="#003B6D"/><path d="M399 155 401 155 401 157 399 157Z" fill="#003B6D"/><path d="M399 159 401 159 401 161 399 161Z" fill="#003B6D"/><path d="M399 143 401 143 401 145 399 145Z" fill="#003B6D"/><path d="M399 151 401 151 401 153 399 153Z" fill="#003B6D"/><path d="M399 147 401 147 401 149 399 149Z" fill="#003B6D"/><path d="M399 139 401 139 401 141 399 141Z" fill="#003B6D"/><path d="M419 139 421 139 421 141 419 141Z" fill="#003B6D"/><path d="M411 139 413 139 413 141 411 141Z" fill="#003B6D"/><path d="M407 139 409 139 409 141 407 141Z" fill="#003B6D"/><path d="M403 139 405 139 405 141 403 141Z" fill="#003B6D"/><path d="M415 139 417 139 417 141 415 141Z" fill="#003B6D"/><path d="M423 139 425 139 425 141 423 141Z" fill="#003B6D"/><path d="M423 147 425 147 425 149 423 149Z" fill="#003B6D"/><path d="M423 155 425 155 425 157 423 157Z" fill="#003B6D"/><path d="M423 151 425 151 425 153 423 153Z" fill="#003B6D"/><path d="M423 159 425 159 425 161 423 161Z" fill="#003B6D"/><path d="M423 143 425 143 425 145 423 145Z" fill="#003B6D"/><path d="M344.001 149.983 344.001 152 396 151.983 396 149.983 344.001 149.983Z" fill="#003B6D"/><path d="M412.004 160 414.004 160 414.004 151.983 414.004 149.983 412.004 149.983 404 149.983 404 151.983 412.004 151.983 412.004 160Z" fill="#003B6D"/><path d="M344.001 179 344.001 193.995 344.001 195.995 346.001 195.995 412.004 195.995 414.004 195.995 414.004 193.995 414.004 168 412.004 168 412.004 193.995 346.001 193.995 346.001 179 344.001 179Z" fill="#003B6D"/><path d="M341 148.982C341 147.877 341.895 146.982 343 146.982L396 146.982 396 144.982 343 144.982C340.794 144.989 339.007 146.776 339 148.982L339 152 341 152Z" fill="#003B6D"/><path d="M417 148.982 417 160 419 160 419 148.982C418.993 146.776 417.206 144.989 415 144.982L404 144.982 404 146.982 415 146.982C416.105 146.982 417 147.877 417 148.982Z" fill="#003B6D"/><path d="M417 197C417 198.105 416.105 199 415 199L343 199C341.895 199 341 198.105 341 197L341 179 339 179 339 197C339.007 199.206 340.794 200.993 343 201L372 201 372 211 361 211 361 213 397 213 397 211 386 211 386 201 415 201C417.206 200.993 418.993 199.206 419 197L419 168 417 168ZM384 211 374 211 374 201 384 201Z" fill="#003B6D"/><path d="M359 155 333 155 333 176 359 176ZM357 174 335 174 335 157 357 157Z" fill="#003B6D"/><path d="M340 161 352 161 352 163 340 163Z" fill="#003B6D"/><path d="M340 167 348 167 348 169 340 169Z" fill="#003B6D"/><path d="M379 187C386.732 187 393 180.732 393 173 393 165.268 386.732 159 379 159 371.268 159 365 165.268 365 173 365.008 180.729 371.271 186.992 379 187ZM372.013 182.737C372.159 178.878 375.406 175.868 379.264 176.014 382.918 176.153 385.849 179.083 385.987 182.737 381.818 185.754 376.182 185.754 372.013 182.737ZM376 171C376 169.343 377.343 168 379 168 380.657 168 382 169.343 382 171 382 172.657 380.657 174 379 174 377.343 174 376 172.657 376 171ZM379 161C385.616 160.99 390.988 166.345 390.999 172.961 391.003 175.99 389.86 178.909 387.8 181.129 387.172 178.209 385.141 175.789 382.375 174.663 384.411 172.798 384.55 169.635 382.685 167.599 380.82 165.562 377.657 165.423 375.621 167.288 373.585 169.154 373.446 172.316 375.311 174.353 375.41 174.461 375.513 174.564 375.621 174.663 372.856 175.79 370.827 178.21 370.2 181.129 365.699 176.279 365.983 168.699 370.832 164.199 373.053 162.138 375.971 160.995 379 161Z" fill="#003B6D"/><path d="M406.748 181.608C406.748 181.524 406.664 181.44 406.496 181.356L396.5 178 396.416 178C396.236 178.012 396.092 178.156 396.08 178.336L396.08 178.42 399.357 188.5C399.437 188.657 399.6 188.755 399.777 188.752 399.861 188.752 399.945 188.668 400.029 188.5L401.284 185.07C401.287 185.066 401.294 185.065 401.298 185.068 401.299 185.069 401.299 185.069 401.3 185.07L405.236 189 407 187.236 403.064 183.3C403.059 183.296 403.059 183.289 403.062 183.285 403.063 183.284 403.063 183.284 403.064 183.283L406.5 182.028C406.656 181.947 406.752 181.784 406.748 181.608Z" fill="#003B6D"/></g></svg>