<svg width="96" height="96" xmlns="http://www.w3.org/2000/svg" xmlns:xlink="http://www.w3.org/1999/xlink" xml:space="preserve" overflow="hidden"><g transform="translate(-248 -286)"><path d="M308.879 339.132C314.512 341.226 318.505 343.342 321.356 345.763 321.538 345.918 321.708 346.08 321.872 346.245 322.853 346.372 323.826 346.555 324.786 346.794 324.225 345.827 323.503 344.963 322.651 344.239 319.525 341.742 316.03 339.746 312.291 338.321 314.08 337.89 315.772 337.127 317.281 336.073 317.723 335.743 317.814 335.117 317.484 334.675 317.48 334.669 317.476 334.664 317.472 334.659 316.342 333.324 315.641 331.678 315.461 329.938 315.448 329.034 315.5 328.13 315.615 327.232 315.898 324.348 316.279 320.458 314.453 316.673 315.238 317.105 316.111 317.35 317.006 317.391 318.22 317.394 319.289 316.593 319.629 315.427 320.674 312.056 310.186 304.58 302.246 300.09 301.906 299.9 301.566 299.73 301.246 299.56 301.87 299.148 302.541 298.812 303.246 298.56 303.768 298.381 304.046 297.812 303.867 297.29 303.696 296.79 303.165 296.51 302.656 296.65 301.369 297.08 300.18 297.76 299.156 298.65 297.231 298.003 295.212 297.682 293.181 297.701 289.711 297.701 286.619 298.49 283.939 298.49 283.769 298.49 283.602 298.487 283.436 298.48 282.594 298.446 281.848 298.422 281.186 298.422 278.532 298.422 277.218 298.801 276.346 300.41 274.966 302.88 276.796 306.67 279.426 307.59L279.256 308.28C279.18 308.612 279.281 308.961 279.524 309.201 274.928 313.654 275.719 320.891 276.273 325.863 276.467 327.212 276.561 328.574 276.554 329.937 276.375 331.678 275.674 333.324 274.543 334.659 274.205 335.095 274.284 335.723 274.719 336.061 274.724 336.065 274.73 336.069 274.735 336.073 276.243 337.128 277.936 337.89 279.725 338.322 278.138 338.979 276.677 339.644 275.359 340.327L276.062 342.212C278.62 340.901 281.263 339.767 283.975 338.816L283.967 338.795 284.102 338.739 295.346 348.748C295.725 349.086 296.297 349.086 296.676 348.748L307.906 338.739ZM286.521 337.747C288.013 337.12 288.988 335.665 289.002 334.047L289.002 332.273C293.386 334.582 298.628 334.577 303.008 332.258L303.008 334.046C303.004 335.67 303.985 337.133 305.488 337.746L305.848 337.894 296.01 346.662 286.16 337.894ZM307.286 314.78 309.01 315.74 309.01 319.001C309.009 326.182 303.187 332.002 296.006 332.001 289.584 332 284.124 327.31 283.155 320.961 285.277 319.906 291.903 316.313 296.521 310.599 300.28 311.503 303.901 312.909 307.286 314.78ZM306.248 335.896C305.496 335.59 305.006 334.858 305.008 334.046L305.008 330.974C308.782 328.15 311.006 323.714 311.01 319.001L311.01 316.854 312.767 317.832C314.195 321.022 313.891 324.331 313.625 327.037 313.496 328.04 313.443 329.051 313.466 330.062 313.615 331.836 314.231 333.538 315.253 334.996 313.633 335.921 309.854 337.574 306.248 335.896ZM300.308 301.326 300.657 301.509C300.858 301.613 301.065 301.72 301.262 301.831 311.262 307.485 317.509 313.181 317.698 314.871 317.468 315.391 317.214 315.391 317.007 315.391 316.417 315.347 315.844 315.172 315.332 314.877 314.433 314.429 313.341 314.717 312.78 315.55L308.256 313.03C301.564 309.326 294.042 307.38 286.393 307.375 286.007 307.375 285.621 307.38 285.24 307.39L281.423 307.479C281.378 306.67 280.85 305.969 280.086 305.702 279.159 305.281 278.446 304.497 278.113 303.535 277.799 302.846 277.796 302.055 278.104 301.363 278.4 300.817 278.614 300.422 281.186 300.422 281.875 300.422 282.67 300.45 283.356 300.478 283.548 300.486 283.742 300.49 283.939 300.49 285.373 300.456 286.803 300.331 288.222 300.117 289.864 299.872 291.521 299.733 293.181 299.701 294.992 299.682 296.793 299.967 298.51 300.542ZM278.26 325.642C277.664 320.288 276.85 312.961 282.402 309.457L285.286 309.39C285.655 309.38 286.024 309.376 286.393 309.376 289.053 309.378 291.707 309.626 294.321 310.118 290.717 313.99 286.425 317.158 281.662 319.46 281.272 319.636 281.038 320.042 281.08 320.467 281.475 324.663 283.627 328.496 287.002 331.02L287.002 334.047C287.004 334.858 286.513 335.59 285.761 335.897L285.345 336.067C281.859 337.469 278.328 335.889 276.763 334.996 277.785 333.538 278.401 331.836 278.55 330.062 278.569 328.583 278.471 327.105 278.26 325.642Z" fill="#003B6D"/><path d="M268.011 366.944 268.011 351.022C268.015 350.824 268.035 350.629 268.057 350.433L266.804 347.616C266.313 348.678 266.043 349.83 266.011 351.001L266.011 368.035 266.456 368.332C271.125 371.445 283.782 373 296.333 372.999 299.009 372.999 301.674 372.924 304.262 372.783 303.487 372.226 302.759 371.608 302.085 370.933 288.671 371.444 273.489 370.115 268.011 366.944Z" fill="#003B6D"/><path d="M276.963 365.55C277.363 366.433 278.244 366.999 279.213 366.996 279.588 366.992 279.96 366.92 280.31 366.783 281.646 366.287 282.334 364.809 281.854 363.467L272.612 338.689 268.81 330.971C269.67 329.638 269.824 327.97 269.224 326.502 268.435 324.66 266.702 324.373 265.253 323.522 263.591 322.655 262.607 320.881 262.753 319.012 258.797 321.354 258.77 326.658 260.217 330.19 260.793 331.582 261.982 332.629 263.436 333.024L266.184 341.319ZM279.991 364.195C280.066 364.508 279.885 364.827 279.577 364.923 279.177 365.074 278.914 365.007 278.785 364.726L269.35 343.528 271.894 342.486ZM270.757 339.435 271.195 340.611 268.537 341.7 268.047 340.599 267.875 340.08 270.537 338.99ZM262.068 329.432C261.222 327.399 261.137 325.129 261.827 323.038 262.444 323.974 263.286 324.74 264.276 325.267 264.723 325.527 265.174 325.736 265.573 325.921 266.683 326.435 267.127 326.686 267.373 327.26 267.961 328.725 267.264 330.39 265.807 330.999 265.469 331.138 265.106 331.209 264.739 331.209 263.573 331.206 262.521 330.507 262.068 329.432ZM266.566 332.849C266.826 332.739 267.075 332.606 267.311 332.451L269.65 337.192 267.246 338.177 265.577 333.129C265.915 333.071 266.247 332.978 266.566 332.849Z" fill="#003B6D"/><path d="M330.693 359.858C329.585 359.858 328.646 360.516 328.646 361.295 328.646 362.074 329.547 362.731 330.693 362.731 331.847 362.731 332.749 362.074 332.749 361.295 332.749 360.516 331.8 359.858 330.693 359.858Z" fill="#003B6D"/><path d="M328.646 364.374C327.529 364.374 326.59 365.031 326.59 365.81 326.59 366.589 327.491 367.246 328.646 367.246 329.791 367.246 330.693 366.589 330.693 365.81 330.693 365.031 329.763 364.374 328.646 364.374Z" fill="#003B6D"/><path d="M318.376 348.001C313.067 348.001 310.012 349.148 309.035 351.506 308.455 353.038 308.823 354.768 309.977 355.931L310.863 356.817 307.473 355.352C306.725 355.014 305.916 354.833 305.096 354.819 303.264 354.83 301.608 355.909 300.857 357.579 300.259 358.8 299.948 360.141 299.947 361.501 299.947 369.071 308.042 375.001 318.376 375.001 328.71 375.001 336.805 369.071 336.805 361.501 336.804 354.057 328.537 348.001 318.376 348.001ZM318.376 373.001C309.298 373.001 301.947 367.866 301.947 361.501 301.947 359.736 302.728 356.819 305.095 356.819 305.643 356.833 306.182 356.958 306.679 357.188L311.805 359.403C311.986 359.483 312.182 359.525 312.38 359.526 313.331 359.444 314.037 358.607 313.956 357.656 313.921 357.246 313.74 356.862 313.447 356.573L311.391 354.517C310.528 353.653 309.054 350.001 318.376 350.001 327.416 350.001 334.804 355.136 334.804 361.501 334.804 367.866 327.454 373.001 318.376 373.001Z" fill="#003B6D"/><path d="M324.121 352.874C323.013 352.874 322.074 353.531 322.074 354.31 322.074 355.089 322.976 355.746 324.121 355.746 325.276 355.746 326.177 355.089 326.177 354.31 326.177 353.531 325.229 352.874 324.121 352.874Z" fill="#003B6D"/><path d="M328.646 358.629C329.754 358.629 330.693 357.962 330.693 357.183 330.693 356.404 329.791 355.746 328.646 355.746 327.491 355.746 326.59 356.394 326.59 357.183 326.59 357.971 327.538 358.629 328.646 358.629Z" fill="#003B6D"/><path d="M318.376 368.073C317.259 368.073 316.32 368.73 316.32 369.509 316.32 370.288 317.221 370.945 318.376 370.945 319.521 370.945 320.432 370.288 320.432 369.509 320.432 368.73 319.493 368.073 318.376 368.073Z" fill="#003B6D"/><path d="M312.621 367.246C311.513 367.246 310.574 367.894 310.574 368.683 310.574 369.471 311.476 370.129 312.621 370.129 313.776 370.129 314.677 369.462 314.677 368.683 314.677 367.904 313.729 367.246 312.621 367.246Z" fill="#003B6D"/><path d="M324.121 366.843C323.013 366.843 322.074 367.5 322.074 368.279 322.074 369.058 322.976 369.716 324.121 369.716 325.276 369.716 326.177 369.058 326.177 368.279 326.177 367.5 325.229 366.843 324.121 366.843Z" fill="#003B6D"/></g></svg>