<svg width="96" height="96" xmlns="http://www.w3.org/2000/svg" xmlns:xlink="http://www.w3.org/1999/xlink" xml:space="preserve" overflow="hidden"><g transform="translate(-673 -320)"><path d="M692.681 406.706C692.243 407.081 691.598 407.081 691.16 406.706L685.292 400.838C684.907 400.415 684.899 399.771 685.274 399.338L709.99 375.777 708.615 374.339 683.878 397.9C682.7 399.11 682.7 401.039 683.878 402.249L689.746 408.117C690.964 409.296 692.901 409.289 694.11 408.1L717.5 383.638 716.129 382.2Z" fill="#003B6D"/><path d="M707.427 352.466 715.069 344.735C716.242 343.531 716.242 341.612 715.069 340.408L705.635 330.876C704.43 329.703 702.509 329.703 701.304 330.876L693.34 338.845 692.514 338.07C691.31 336.894 689.387 336.894 688.183 338.07L685.169 341.083C684.009 342.281 683.999 344.181 685.146 345.392L685.946 346.24 683.812 348.375C683.277 348.877 682.866 349.496 682.612 350.184L677.268 364.168C676.819 365.254 677.102 366.504 677.975 367.291 678.799 368.12 680.007 368.436 681.131 368.117L695.719 363.352C696.487 363.114 697.188 362.698 697.764 362.138L699.471 360.43 745.058 408.124C746.264 409.296 748.183 409.296 749.389 408.124L755.125 402.388C756.301 401.175 756.294 399.245 755.109 398.041ZM686.583 342.5 689.6 339.485C690.037 339.095 690.7 339.104 691.126 339.507L691.926 340.259 687.358 344.827 686.583 344C686.196 343.575 686.196 342.925 686.583 342.5ZM696.35 360.723C695.994 361.061 695.563 361.311 695.093 361.452L680.577 366.2C680.12 366.32 679.634 366.172 679.321 365.819 679.081 365.595 678.999 365.248 679.114 364.94L684.491 350.862C684.649 350.455 684.899 350.09 685.222 349.795L702.722 332.295C703.148 331.909 703.796 331.909 704.222 332.295L713.656 341.826C714.044 342.253 714.044 342.906 713.656 343.333ZM753.711 400.974 747.975 406.709C747.555 407.091 746.916 407.099 746.487 406.726L700.887 359.016 706.018 353.884 753.711 399.471C754.097 399.898 754.097 400.547 753.711 400.974Z" fill="#003B6D"/><path d="M750.636 337.442 735.85 327.585C734.64 326.709 732.976 326.829 731.905 327.87L723.105 336.57 723.027 336.656C722.507 337.305 722.223 338.111 722.221 338.943L722.234 339.107C722.378 339.963 722.85 340.73 723.549 341.245L735.217 348.963 721.648 361.909 723.092 363.289 736.8 350.225 741.87 355.3 728.906 368.847 730.348 370.224 743.129 356.874 750.7 368.231C751.249 368.899 752.026 369.341 752.881 369.472 753.812 369.587 754.744 369.27 755.411 368.61L764.222 359.9C765.259 358.843 765.391 357.195 764.535 355.987L754.162 340.9 750.915 337.648ZM762.812 358.483 754 367.193C753.789 367.397 753.504 367.508 753.21 367.5 752.869 367.453 752.552 367.296 752.31 367.051L744.041 354.651 737.441 348.051 724.723 339.634C724.47 339.446 724.292 339.173 724.223 338.865 724.24 338.534 724.356 338.215 724.557 337.951L733.317 329.288C733.703 328.943 734.277 328.913 734.696 329.217L749.58 339.142 752.637 342.2 762.911 357.154C763.188 357.567 763.147 358.116 762.812 358.483Z" fill="#003B6D"/></g></svg>